PathFileType	4	(X/Y/Z)	Patient4_TMGait_0pt2_01_right_21.trc.trc
DataRate	CameraRate	NumFrames	NumMarkers	Units	OrigDataRate	OrigDataStartFrame	OrigNumFrames
43.750000000000	43.750000000000	4	33	mm	43.750000000000	71	       141
Frame#	Time	Sacral			L.Shoulder			Chest			R.Shoulder			Neck			R.ASIS			L.ASIS			R.Thigh.Superior			R.Thigh.Lateral			R.Thigh.Inferior			R.Patella			L.Thigh.Superior			L.Thigh.Lateral			L.Thigh.Inferior			L.Patella			L.Shank.Superior			L.Shank.Lateral			L.Shank.Inferior			R.Shank.Superior			R.Shank.Lateral			R.Shank.Inferior			R.Heel			R.Midfoot.Superior			R.Midfoot.Lateral			R.Toe			L.Heel			L.Midfoot.Lateral			L.Midfoot.Superior			L.Toe			L.Elbow			L.Wrist			R.Elbow			R.Wrist			
		X1	Y1	Z1	X2	Y2	Z2	X3	Y3	Z3	X4	Y4	Z4	X5	Y5	Z5	X6	Y6	Z6	X7	Y7	Z7	X8	Y8	Z8	X9	Y9	Z9	X10	Y10	Z10	X11	Y11	Z11	X12	Y12	Z12	X13	Y13	Z13	X14	Y14	Z14	X15	Y15	Z15	X16	Y16	Z16	X17	Y17	Z17	X18	Y18	Z18	X19	Y19	Z19	X20	Y20	Z20	X21	Y21	Z21	X22	Y22	Z22	X23	Y23	Z23	X24	Y24	Z24	X25	Y25	Z25	X26	Y26	Z26	X27	Y27	Z27	X28	Y28	Z28	X29	Y29	Z29	X30	Y30	Z30	X31	Y31	Z31	X32	Y32	Z32	X33	Y33	Z33	

71	48.740000000000	723.724500771987	1005.116210914865	601.249414659885	860.756036420650	1432.627499990186	396.861341090485	993.942205570376	1362.580804060438	533.319730174149	948.599808343579	1435.603578642182	719.796741190065	876.258139042051	1492.914205420789	552.358886010577	964.449063306255	931.767648324513	678.386179412292	909.943752761828	964.380835650218	409.961393530306	969.560800724704	722.519540369909	632.281802307536	880.809312033235	617.731185367106	697.140819525397	934.745950064977	563.045443913232	604.184367944982	920.200976008119	475.437037405982	605.139734048670	982.224877627944	768.855894908532	428.398873957934	917.670445233546	646.059252869887	349.155885634315	1018.100258023463	581.749685244899	405.606588201012	1034.850514393268	516.490380839214	401.465138307052	1019.717402033223	445.745594127262	385.291609960666	952.725665237649	320.628110636392	323.271596580628	1037.222125614205	215.835073493720	373.455357502785	878.830431528011	390.373519266147	611.204954806117	799.326788327343	294.113462643159	674.925090094548	819.253086640774	199.602631235105	602.527283100638	660.833215648481	44.616137469230	575.823869611043	835.823793764458	96.246640857734	605.698505884172	746.806507199757	37.135515493620	646.958906284604	954.705984580822	40.065688224733	629.350828027300	946.607038559943	38.154922039613	395.716108181061	1025.994247351526	43.423106277411	321.110092860184	1097.378437530380	118.224356610970	349.371986862090	1231.682404898686	86.267265731112	331.108052958181	714.857721444560	1110.125190821732	318.189018217971	683.384217127150	852.637147034301	359.959078239419	1147.168513587913	1165.634137444870	829.350162988763	1393.383920633562	1209.435047361381	768.217343362511	
72	48.762857142857	724.436578741871	1004.104047017123	599.207548192794	859.116772975583	1431.442082043842	393.093057056898	993.247500363241	1361.951966105677	528.980210975009	948.577812969435	1434.997686113546	715.537351527806	875.184073980185	1492.053442409470	548.445695304093	965.563551189768	931.485767769951	675.509828290520	909.738224480824	962.613329444962	407.116217844854	968.919719716625	721.713525103007	630.584381095820	879.170559339018	617.664026832855	695.946318589090	932.289561155743	562.241498697469	603.263572239132	916.776641337443	474.962395910696	604.409559510239	981.685496554137	766.514935690287	426.054334584953	915.338529202083	643.545023374105	348.339597327701	1016.016295470565	579.469366383311	404.129864379732	1031.405959720432	514.234909556140	400.528724987291	1017.298497531493	443.502571949611	384.503487209270	950.756080612970	317.881382754883	323.640701409364	1036.002422048951	213.972959780848	374.061814863269	875.394550027469	390.052100388295	610.671897897058	795.572284478201	294.153907477774	674.767375386521	815.003021092921	199.430231384155	602.440756983090	656.204756351713	44.635116639575	575.953535650783	831.135741807566	96.138946350016	605.669547722960	742.199840411065	37.083185002764	647.055384885152	950.111194486394	40.001818566376	629.345570262165	945.668446387487	37.550391693940	397.310031679552	1024.943370938829	42.104172525863	322.534217392572	1096.888329597665	115.996814706857	350.775128377979	1230.757963090718	82.751186838916	332.402703128309	714.404671573153	1107.646503121684	317.186535512102	683.535266290320	850.339235152321	361.059519576708	1152.381552521846	1169.365820307659	823.097565224774	1396.199697984211	1221.102307524027	759.038523397955	
73	48.785714285714	725.256273775616	1003.032411643335	596.756815638100	857.962879034281	1430.130506520502	388.985047446696	992.836321016254	1361.201661097517	524.497263779750	948.607634589148	1434.326047607156	711.061728712436	874.393958592523	1491.123703733658	544.200549100448	966.760246621114	931.184453104195	672.592937806281	909.948198827922	960.778800301090	404.162978532572	968.715613587750	720.928460637808	628.907862939344	877.940793005172	617.542676464132	694.549939451335	930.533848144436	561.430223345903	602.272712571264	914.152926645608	474.343421861300	603.580147861668	981.746913355422	764.265276148920	423.924664393332	914.058231387917	641.118095167578	347.545169212324	1014.784950580168	577.205165484692	402.951117939488	1028.961646157507	511.864797725712	399.800784259624	1015.497908629116	441.088394593265	383.882025204821	948.847524348121	315.363368617791	323.933075293803	1034.104891785809	211.837971785752	374.710553519578	872.567220905550	389.650662253165	610.015766048291	792.227218843405	294.270084312033	674.495334951527	811.030439615473	199.269366687167	602.287044970647	651.632035990653	44.846025049997	576.067923885371	826.503530509123	96.034180319669	605.582270898675	737.636420258943	37.134225683581	647.124099813923	945.541245257203	39.886334854108	629.355250561473	942.930782893783	37.226206254334	398.748827539214	1022.127227180043	40.757806236681	323.801973822147	1095.099379267460	113.222218827180	352.194430159279	1228.348383052156	77.926104965204	333.645747655731	714.696197105240	1105.024007315051	315.290949379160	684.530307057829	847.861159532165	360.844603925478	1156.853726159166	1172.488326005326	816.737086434000	1398.350017763525	1231.046737252954	750.058684199792	
74	48.808571428571	726.173923423911	1002.021819601574	593.899130878457	857.258939663142	1428.824220376806	384.596701008240	992.698839450143	1360.451261228270	519.907151413063	948.705970137358	1433.711451818562	706.412818744648	873.868976413143	1490.236922260881	539.679410833098	968.011374343481	930.921258680173	669.613950202572	910.560448006752	959.065388862447	401.097405372755	968.826041583200	720.206179378892	627.179885947217	877.005487189090	617.434379540618	692.935514784552	929.317958595596	560.663250680003	601.168045309949	912.146564303124	473.653390064796	602.624727096619	982.417649269950	762.299085599554	421.925912825966	913.863338247692	638.956835152793	346.623520942045	1014.445199008963	575.130442535214	401.930747160119	1027.612152693879	509.593857392860	399.177188730996	1014.448820659146	438.712694625370	383.345663249794	947.301708357635	313.193326600620	323.982056661475	1031.887386280680	209.609547195114	375.306484187621	870.201084041638	389.234217424517	609.228175959209	789.186113570489	294.508820841186	674.099357244424	807.289240821067	199.168876667305	602.067758656219	647.118499677479	45.274403907177	576.164690076238	821.937950651221	95.944169964538	605.438458684112	733.117339429784	37.309216156218	647.165114152328	940.992851401352	39.725371238757	629.379234082596	938.966672789863	37.126924314476	399.902193958649	1018.138738534583	39.454625575116	324.814626249283	1092.434132071038	110.172239427131	353.513709867262	1224.965142435839	72.358628231796	334.790226945640	715.643321702818	1102.455602556296	312.467533357162	686.329640388604	845.374154510085	359.218562897876	1160.655093450888	1175.131610042963	810.354908336250	1400.002041815956	1239.369184360219	741.334000113740	
